<?xml version="1.0" encoding="utf-8" standalone="no"?>
<!DOCTYPE svg PUBLIC "-//W3C//DTD SVG 1.1//EN"
  "http://www.w3.org/Graphics/SVG/1.1/DTD/svg11.dtd">
<svg xmlns:xlink="http://www.w3.org/1999/xlink" width="229.076408pt" height="101.135999pt" viewBox="0 0 229.076408 101.135999" xmlns="http://www.w3.org/2000/svg" version="1.1">
 <metadata>
  <rdf:RDF xmlns:dc="http://purl.org/dc/elements/1.1/" xmlns:cc="http://creativecommons.org/ns#" xmlns:rdf="http://www.w3.org/1999/02/22-rdf-syntax-ns#">
   <cc:Work>
    <dc:type rdf:resource="http://purl.org/dc/dcmitype/StillImage"/>
    <dc:date>2024-04-29T22:33:51.626223</dc:date>
    <dc:format>image/svg+xml</dc:format>
    <dc:creator>
     <cc:Agent>
      <dc:title>Matplotlib v3.8.4, https://matplotlib.org/</dc:title>
     </cc:Agent>
    </dc:creator>
   </cc:Work>
  </rdf:RDF>
 </metadata>
 <defs>
  <style type="text/css">*{stroke-linejoin: round; stroke-linecap: butt}</style>
 </defs>
 <g id="figure_1">
  <g id="patch_1">
   <path d="M 0 101.135999 
L 229.076408 101.135999 
L 229.076408 0 
L 0 0 
z
" style="fill: #ffffff"/>
  </g>
  <g id="axes_1">
   <g id="line2d_1">
    <path d="M 69.315318 38.094559 
L 202.351296 38.094559 
" clip-path="url(#pfdbbe6b7bf)" style="fill: none; stroke: #000000; stroke-width: 1.4; stroke-linecap: square"/>
   </g>
   <g id="line2d_2">
    <path d="M 69.315318 70.542359 
L 202.351296 70.542359 
" clip-path="url(#pfdbbe6b7bf)" style="fill: none; stroke: #000000; stroke-width: 1.4; stroke-linecap: square"/>
   </g>
   <g id="patch_2">
    <path d="M 66.070538 21.87066 
L -745.124451 21.87066 
L -745.124451 119.214058 
L 66.070538 119.214058 
z
" clip-path="url(#pfdbbe6b7bf)" style="fill: #ffffff; stroke: #ffffff; stroke-width: 1.05; stroke-linejoin: miter"/>
   </g>
   <g id="line2d_3">
    <path d="M 167.956629 70.542359 
L 167.956629 38.094559 
" clip-path="url(#pfdbbe6b7bf)" style="fill: none; stroke: #33b1ff; stroke-width: 1.4; stroke-linecap: square"/>
   </g>
   <g id="patch_3">
    <path d="M 72.373523 81.087894 
L 101.300737 81.087894 
L 101.300737 27.549025 
L 72.373523 27.549025 
z
" clip-path="url(#pfdbbe6b7bf)" style="fill: #9f1853; stroke: #9f1853; stroke-width: 1.05; stroke-linejoin: miter"/>
   </g>
   <g id="patch_4">
    <path d="M 104.821323 81.087894 
L 133.748536 81.087894 
L 133.748536 27.549025 
L 104.821323 27.549025 
z
" clip-path="url(#pfdbbe6b7bf)" style="fill: #9f1853; stroke: #9f1853; stroke-width: 1.05; stroke-linejoin: miter"/>
   </g>
   <g id="patch_5">
    <path d="M 167.956629 41.25822 
C 168.795641 41.25822 169.600403 40.924877 170.193675 40.331605 
C 170.786946 39.738334 171.120289 38.933572 171.120289 38.094559 
C 171.120289 37.255547 170.786946 36.450785 170.193675 35.857514 
C 169.600403 35.264242 168.795641 34.930899 167.956629 34.930899 
C 167.117616 34.930899 166.312855 35.264242 165.719583 35.857514 
C 165.126312 36.450785 164.792968 37.255547 164.792968 38.094559 
C 164.792968 38.933572 165.126312 39.738334 165.719583 40.331605 
C 166.312855 40.924877 167.117616 41.25822 167.956629 41.25822 
z
" clip-path="url(#pfdbbe6b7bf)" style="fill: #33b1ff; stroke: #33b1ff; stroke-width: 1.05; stroke-linejoin: miter"/>
   </g>
   <g id="patch_6">
    <path d="M 167.956629 73.70602 
C 168.795641 73.70602 169.600403 73.372676 170.193675 72.779405 
C 170.786946 72.186133 171.120289 71.381372 171.120289 70.542359 
C 171.120289 69.703347 170.786946 68.898585 170.193675 68.305313 
C 169.600403 67.712042 168.795641 67.378699 167.956629 67.378699 
C 167.117616 67.378699 166.312855 67.712042 165.719583 68.305313 
C 165.126312 68.898585 164.792968 69.703347 164.792968 70.542359 
C 164.792968 71.381372 165.126312 72.186133 165.719583 72.779405 
C 166.312855 73.372676 167.117616 73.70602 167.956629 73.70602 
z
" clip-path="url(#pfdbbe6b7bf)" style="fill: #33b1ff; stroke: #33b1ff; stroke-width: 1.05; stroke-linejoin: miter"/>
   </g>
   <g id="text_1">
    <g clip-path="url(#pfdbbe6b7bf)">
     <!-- ${q}_{0}$ -->
     <g transform="translate(50.199508 41.210243) scale(0.11375 -0.11375)">
      <defs>
       <path id="DejaVuSans-Oblique-71" d="M 2669 525 
Q 2438 222 2123 65 
Q 1809 -91 1428 -91 
Q 897 -91 595 267 
Q 294 625 294 1253 
Q 294 1759 480 2231 
Q 666 2703 1013 3078 
Q 1238 3322 1530 3453 
Q 1822 3584 2144 3584 
Q 2531 3584 2781 3431 
Q 3031 3278 3144 2969 
L 3244 3494 
L 3822 3494 
L 2888 -1319 
L 2309 -1319 
L 2669 525 
z
M 891 1338 
Q 891 875 1084 633 
Q 1278 391 1644 391 
Q 2188 391 2572 911 
Q 2956 1431 2956 2175 
Q 2956 2625 2757 2864 
Q 2559 3103 2188 3103 
Q 1916 3103 1684 2976 
Q 1453 2850 1281 2606 
Q 1100 2350 995 2006 
Q 891 1663 891 1338 
z
" transform="scale(0.015625)"/>
       <path id="DejaVuSans-30" d="M 2034 4250 
Q 1547 4250 1301 3770 
Q 1056 3291 1056 2328 
Q 1056 1369 1301 889 
Q 1547 409 2034 409 
Q 2525 409 2770 889 
Q 3016 1369 3016 2328 
Q 3016 3291 2770 3770 
Q 2525 4250 2034 4250 
z
M 2034 4750 
Q 2819 4750 3233 4129 
Q 3647 3509 3647 2328 
Q 3647 1150 3233 529 
Q 2819 -91 2034 -91 
Q 1250 -91 836 529 
Q 422 1150 422 2328 
Q 422 3509 836 4129 
Q 1250 4750 2034 4750 
z
" transform="scale(0.015625)"/>
      </defs>
      <use xlink:href="#DejaVuSans-Oblique-71"/>
      <use xlink:href="#DejaVuSans-30" transform="translate(63.476562 -16.40625) scale(0.7)"/>
     </g>
    </g>
   </g>
   <g id="text_2">
    <g clip-path="url(#pfdbbe6b7bf)">
     <!-- ${q}_{1}$ -->
     <g transform="translate(50.199508 73.658043) scale(0.11375 -0.11375)">
      <defs>
       <path id="DejaVuSans-31" d="M 794 531 
L 1825 531 
L 1825 4091 
L 703 3866 
L 703 4441 
L 1819 4666 
L 2450 4666 
L 2450 531 
L 3481 531 
L 3481 0 
L 794 0 
L 794 531 
z
" transform="scale(0.015625)"/>
      </defs>
      <use xlink:href="#DejaVuSans-Oblique-71"/>
      <use xlink:href="#DejaVuSans-31" transform="translate(63.476562 -16.40625) scale(0.7)"/>
     </g>
    </g>
   </g>
   <g id="text_3">
    <g clip-path="url(#pfdbbe6b7bf)">
     <!-- 0 -->
     <g style="fill: #ffffff" transform="translate(74.644869 40.605591) scale(0.091 -0.091)">
      <use xlink:href="#DejaVuSans-30"/>
     </g>
    </g>
   </g>
   <g id="text_4">
    <g clip-path="url(#pfdbbe6b7bf)">
     <!-- 1 -->
     <g style="fill: #ffffff" transform="translate(74.644869 73.05339) scale(0.091 -0.091)">
      <use xlink:href="#DejaVuSans-31"/>
     </g>
    </g>
   </g>
   <g id="text_5">
    <g clip-path="url(#pfdbbe6b7bf)">
     <!-- 2*ref_0 -->
     <g style="fill: #ffffff" transform="translate(80.246763 61.30196) scale(0.056 -0.056)">
      <defs>
       <path id="DejaVuSans-32" d="M 1228 531 
L 3431 531 
L 3431 0 
L 469 0 
L 469 531 
Q 828 903 1448 1529 
Q 2069 2156 2228 2338 
Q 2531 2678 2651 2914 
Q 2772 3150 2772 3378 
Q 2772 3750 2511 3984 
Q 2250 4219 1831 4219 
Q 1534 4219 1204 4116 
Q 875 4013 500 3803 
L 500 4441 
Q 881 4594 1212 4672 
Q 1544 4750 1819 4750 
Q 2544 4750 2975 4387 
Q 3406 4025 3406 3419 
Q 3406 3131 3298 2873 
Q 3191 2616 2906 2266 
Q 2828 2175 2409 1742 
Q 1991 1309 1228 531 
z
" transform="scale(0.015625)"/>
       <path id="DejaVuSans-2a" d="M 3009 3897 
L 1888 3291 
L 3009 2681 
L 2828 2375 
L 1778 3009 
L 1778 1831 
L 1422 1831 
L 1422 3009 
L 372 2375 
L 191 2681 
L 1313 3291 
L 191 3897 
L 372 4206 
L 1422 3572 
L 1422 4750 
L 1778 4750 
L 1778 3572 
L 2828 4206 
L 3009 3897 
z
" transform="scale(0.015625)"/>
       <path id="DejaVuSans-72" d="M 2631 2963 
Q 2534 3019 2420 3045 
Q 2306 3072 2169 3072 
Q 1681 3072 1420 2755 
Q 1159 2438 1159 1844 
L 1159 0 
L 581 0 
L 581 3500 
L 1159 3500 
L 1159 2956 
Q 1341 3275 1631 3429 
Q 1922 3584 2338 3584 
Q 2397 3584 2469 3576 
Q 2541 3569 2628 3553 
L 2631 2963 
z
" transform="scale(0.015625)"/>
       <path id="DejaVuSans-65" d="M 3597 1894 
L 3597 1613 
L 953 1613 
Q 991 1019 1311 708 
Q 1631 397 2203 397 
Q 2534 397 2845 478 
Q 3156 559 3463 722 
L 3463 178 
Q 3153 47 2828 -22 
Q 2503 -91 2169 -91 
Q 1331 -91 842 396 
Q 353 884 353 1716 
Q 353 2575 817 3079 
Q 1281 3584 2069 3584 
Q 2775 3584 3186 3129 
Q 3597 2675 3597 1894 
z
M 3022 2063 
Q 3016 2534 2758 2815 
Q 2500 3097 2075 3097 
Q 1594 3097 1305 2825 
Q 1016 2553 972 2059 
L 3022 2063 
z
" transform="scale(0.015625)"/>
       <path id="DejaVuSans-66" d="M 2375 4863 
L 2375 4384 
L 1825 4384 
Q 1516 4384 1395 4259 
Q 1275 4134 1275 3809 
L 1275 3500 
L 2222 3500 
L 2222 3053 
L 1275 3053 
L 1275 0 
L 697 0 
L 697 3053 
L 147 3053 
L 147 3500 
L 697 3500 
L 697 3744 
Q 697 4328 969 4595 
Q 1241 4863 1831 4863 
L 2375 4863 
z
" transform="scale(0.015625)"/>
       <path id="DejaVuSans-5f" d="M 3263 -1063 
L 3263 -1509 
L -63 -1509 
L -63 -1063 
L 3263 -1063 
z
" transform="scale(0.015625)"/>
      </defs>
      <use xlink:href="#DejaVuSans-32"/>
      <use xlink:href="#DejaVuSans-2a" x="63.623047"/>
      <use xlink:href="#DejaVuSans-72" x="113.623047"/>
      <use xlink:href="#DejaVuSans-65" x="152.486328"/>
      <use xlink:href="#DejaVuSans-66" x="214.009766"/>
      <use xlink:href="#DejaVuSans-5f" x="249.214844"/>
      <use xlink:href="#DejaVuSans-30" x="299.214844"/>
     </g>
    </g>
   </g>
   <g id="text_6">
    <g clip-path="url(#pfdbbe6b7bf)">
     <!-- $\mathrm{R_{XX}}$ -->
     <g style="fill: #ffffff" transform="translate(82.671388 51.637843) scale(0.091 -0.091)">
      <defs>
       <path id="DejaVuSans-52" d="M 2841 2188 
Q 3044 2119 3236 1894 
Q 3428 1669 3622 1275 
L 4263 0 
L 3584 0 
L 2988 1197 
Q 2756 1666 2539 1819 
Q 2322 1972 1947 1972 
L 1259 1972 
L 1259 0 
L 628 0 
L 628 4666 
L 2053 4666 
Q 2853 4666 3247 4331 
Q 3641 3997 3641 3322 
Q 3641 2881 3436 2590 
Q 3231 2300 2841 2188 
z
M 1259 4147 
L 1259 2491 
L 2053 2491 
Q 2509 2491 2742 2702 
Q 2975 2913 2975 3322 
Q 2975 3731 2742 3939 
Q 2509 4147 2053 4147 
L 1259 4147 
z
" transform="scale(0.015625)"/>
       <path id="DejaVuSans-58" d="M 403 4666 
L 1081 4666 
L 2241 2931 
L 3406 4666 
L 4084 4666 
L 2584 2425 
L 4184 0 
L 3506 0 
L 2194 1984 
L 872 0 
L 191 0 
L 1856 2491 
L 403 4666 
z
" transform="scale(0.015625)"/>
      </defs>
      <use xlink:href="#DejaVuSans-52" transform="translate(0 0.09375)"/>
      <use xlink:href="#DejaVuSans-58" transform="translate(70.439453 -16.3125) scale(0.7)"/>
      <use xlink:href="#DejaVuSans-58" transform="translate(118.393555 -16.3125) scale(0.7)"/>
     </g>
    </g>
   </g>
   <g id="text_7">
    <g clip-path="url(#pfdbbe6b7bf)">
     <!-- 0 -->
     <g style="fill: #ffffff" transform="translate(107.092669 40.605591) scale(0.091 -0.091)">
      <use xlink:href="#DejaVuSans-30"/>
     </g>
    </g>
   </g>
   <g id="text_8">
    <g clip-path="url(#pfdbbe6b7bf)">
     <!-- 1 -->
     <g style="fill: #ffffff" transform="translate(107.092669 73.05339) scale(0.091 -0.091)">
      <use xlink:href="#DejaVuSans-31"/>
     </g>
    </g>
   </g>
   <g id="text_9">
    <g clip-path="url(#pfdbbe6b7bf)">
     <!-- 2*ref_0 -->
     <g style="fill: #ffffff" transform="translate(112.694562 61.30196) scale(0.056 -0.056)">
      <use xlink:href="#DejaVuSans-32"/>
      <use xlink:href="#DejaVuSans-2a" x="63.623047"/>
      <use xlink:href="#DejaVuSans-72" x="113.623047"/>
      <use xlink:href="#DejaVuSans-65" x="152.486328"/>
      <use xlink:href="#DejaVuSans-66" x="214.009766"/>
      <use xlink:href="#DejaVuSans-5f" x="249.214844"/>
      <use xlink:href="#DejaVuSans-30" x="299.214844"/>
     </g>
    </g>
   </g>
   <g id="text_10">
    <g clip-path="url(#pfdbbe6b7bf)">
     <!-- $\mathrm{R_{YY}}$ -->
     <g style="fill: #ffffff" transform="translate(115.619687 51.637843) scale(0.091 -0.091)">
      <defs>
       <path id="DejaVuSans-59" d="M -13 4666 
L 666 4666 
L 1959 2747 
L 3244 4666 
L 3922 4666 
L 2272 2222 
L 2272 0 
L 1638 0 
L 1638 2222 
L -13 4666 
z
" transform="scale(0.015625)"/>
      </defs>
      <use xlink:href="#DejaVuSans-52" transform="translate(0 0.09375)"/>
      <use xlink:href="#DejaVuSans-59" transform="translate(70.439453 -16.3125) scale(0.7)"/>
      <use xlink:href="#DejaVuSans-59" transform="translate(113.198242 -16.3125) scale(0.7)"/>
     </g>
    </g>
   </g>
   <g id="text_11">
    <g clip-path="url(#pfdbbe6b7bf)">
     <!-- $\mathrm{ZZ}$ (2*ref_0) -->
     <g transform="translate(172.881888 53.707289) scale(0.056 -0.056)">
      <defs>
       <path id="DejaVuSans-5a" d="M 359 4666 
L 4025 4666 
L 4025 4184 
L 1075 531 
L 4097 531 
L 4097 0 
L 288 0 
L 288 481 
L 3238 4134 
L 359 4134 
L 359 4666 
z
" transform="scale(0.015625)"/>
       <path id="DejaVuSans-20" transform="scale(0.015625)"/>
       <path id="DejaVuSans-28" d="M 1984 4856 
Q 1566 4138 1362 3434 
Q 1159 2731 1159 2009 
Q 1159 1288 1364 580 
Q 1569 -128 1984 -844 
L 1484 -844 
Q 1016 -109 783 600 
Q 550 1309 550 2009 
Q 550 2706 781 3412 
Q 1013 4119 1484 4856 
L 1984 4856 
z
" transform="scale(0.015625)"/>
       <path id="DejaVuSans-29" d="M 513 4856 
L 1013 4856 
Q 1481 4119 1714 3412 
Q 1947 2706 1947 2009 
Q 1947 1309 1714 600 
Q 1481 -109 1013 -844 
L 513 -844 
Q 928 -128 1133 580 
Q 1338 1288 1338 2009 
Q 1338 2731 1133 3434 
Q 928 4138 513 4856 
z
" transform="scale(0.015625)"/>
      </defs>
      <use xlink:href="#DejaVuSans-5a" transform="translate(0 0.015625)"/>
      <use xlink:href="#DejaVuSans-5a" transform="translate(68.505859 0.015625)"/>
      <use xlink:href="#DejaVuSans-20" transform="translate(137.011719 0.015625)"/>
      <use xlink:href="#DejaVuSans-28" transform="translate(168.798828 0.015625)"/>
      <use xlink:href="#DejaVuSans-32" transform="translate(207.8125 0.015625)"/>
      <use xlink:href="#DejaVuSans-2a" transform="translate(271.435547 0.015625)"/>
      <use xlink:href="#DejaVuSans-72" transform="translate(321.435547 0.015625)"/>
      <use xlink:href="#DejaVuSans-65" transform="translate(362.548828 0.015625)"/>
      <use xlink:href="#DejaVuSans-66" transform="translate(424.072266 0.015625)"/>
      <use xlink:href="#DejaVuSans-5f" transform="translate(459.277344 0.015625)"/>
      <use xlink:href="#DejaVuSans-30" transform="translate(509.277344 0.015625)"/>
      <use xlink:href="#DejaVuSans-29" transform="translate(572.900391 0.015625)"/>
     </g>
    </g>
   </g>
  </g>
 </g>
 <defs>
  <clipPath id="pfdbbe6b7bf">
   <rect x="29.207242" y="12.13632" width="176.388834" height="77.874719"/>
  </clipPath>
 </defs>
</svg>
